# xmcd
#
# Track frame offsets:
# 150
# 8682
# 51656
# 74456
# 109295
# 121561
# 129998
# 144472
#
# Disc length: 2187 seconds
#
# Revision: 0
# Processed by: cddbd v1.5.2PL0 Copyright (c) Steve Scherf et al.
# Submitted via: Audion 3.0.2 (http://www.panic.com/audion/)
#
DISCID=6d088908
DTITLE=frank zappa - breast france 79 mar 26 pt 2
DYEAR=1900
DGENRE=
TTITLE0=inca roads 1
TTITLE1=inca roads 2
TTITLE2=floretine pogen
TTITLE3=don't you want a man
TTITLE4=montana
TTITLE5=improv
TTITLE6=dirty love
TTITLE7=solo
EXTD=
EXTT0=
EXTT1=
EXTT2=
EXTT3=
EXTT4=
EXTT5=
EXTT6=
EXTT7=
PLAYORDER=
